<svg xmlns="http://www.w3.org/2000/svg" xmlns:xlink="http://www.w3.org/1999/xlink" width="1200" zoomAndPan="magnify" viewBox="0 0 900 299.999988" height="400" preserveAspectRatio="xMidYMid meet" version="1.0"><defs><g/><clipPath id="2a409304c3"><rect x="0" width="614" y="0" height="182"/></clipPath><clipPath id="a919b2cfe1"><rect x="0" width="249" y="0" height="300"/></clipPath></defs><g transform="matrix(1, 0, 0, 1, 274, 58)"><g clip-path="url(#2a409304c3)"><g fill="#0f172a" fill-opacity="1"><g transform="translate(0.70941, 143.925547)"><g><path d="M 62.375 1.484375 C 51.800781 1.484375 42.265625 -0.8125 33.765625 -5.40625 C 25.273438 -10 18.609375 -16.367188 13.765625 -24.515625 C 8.929688 -32.671875 6.515625 -41.785156 6.515625 -51.859375 C 6.515625 -61.929688 8.929688 -71.039062 13.765625 -79.1875 C 18.609375 -87.332031 25.273438 -93.703125 33.765625 -98.296875 C 42.265625 -102.890625 51.800781 -105.1875 62.375 -105.1875 C 72.9375 -105.1875 82.460938 -102.890625 90.953125 -98.296875 C 99.453125 -93.703125 106.125 -87.351562 110.96875 -79.25 C 115.8125 -71.15625 118.234375 -62.023438 118.234375 -51.859375 C 118.234375 -41.679688 115.8125 -32.539062 110.96875 -24.4375 C 106.125 -16.34375 99.453125 -10 90.953125 -5.40625 C 82.460938 -0.8125 72.9375 1.484375 62.375 1.484375 Z M 62.375 -15.40625 C 69.289062 -15.40625 75.515625 -16.957031 81.046875 -20.0625 C 86.578125 -23.175781 90.921875 -27.523438 94.078125 -33.109375 C 97.234375 -38.691406 98.8125 -44.941406 98.8125 -51.859375 C 98.8125 -58.765625 97.234375 -65.007812 94.078125 -70.59375 C 90.921875 -76.175781 86.578125 -80.519531 81.046875 -83.625 C 75.515625 -86.738281 69.289062 -88.296875 62.375 -88.296875 C 55.457031 -88.296875 49.234375 -86.738281 43.703125 -83.625 C 38.171875 -80.519531 33.820312 -76.175781 30.65625 -70.59375 C 27.5 -65.007812 25.921875 -58.765625 25.921875 -51.859375 C 25.921875 -44.941406 27.5 -38.691406 30.65625 -33.109375 C 33.820312 -27.523438 38.171875 -23.175781 43.703125 -20.0625 C 49.234375 -16.957031 55.457031 -15.40625 62.375 -15.40625 Z M 62.375 -15.40625 "/></g></g></g><g fill="#0f172a" fill-opacity="1"><g transform="translate(125.605949, 143.925547)"><g><path d="M 112 -80 C 121.976562 -80 129.878906 -77.109375 135.703125 -71.328125 C 141.535156 -65.554688 144.453125 -56.890625 144.453125 -45.328125 L 144.453125 0 L 125.9375 0 L 125.9375 -42.96875 C 125.9375 -49.882812 124.40625 -55.09375 121.34375 -58.59375 C 118.28125 -62.101562 113.882812 -63.859375 108.15625 -63.859375 C 101.925781 -63.859375 96.9375 -61.804688 93.1875 -57.703125 C 89.4375 -53.609375 87.5625 -47.757812 87.5625 -40.15625 L 87.5625 0 L 69.046875 0 L 69.046875 -42.96875 C 69.046875 -49.882812 67.515625 -55.09375 64.453125 -58.59375 C 61.390625 -62.101562 56.992188 -63.859375 51.265625 -63.859375 C 44.941406 -63.859375 39.925781 -61.832031 36.21875 -57.78125 C 32.519531 -53.726562 30.671875 -47.851562 30.671875 -40.15625 L 30.671875 0 L 12.15625 0 L 12.15625 -79.109375 L 29.78125 -79.109375 L 29.78125 -69.046875 C 32.738281 -72.597656 36.441406 -75.3125 40.890625 -77.1875 C 45.335938 -79.0625 50.273438 -80 55.703125 -80 C 61.628906 -80 66.890625 -78.890625 71.484375 -76.671875 C 76.078125 -74.453125 79.707031 -71.164062 82.375 -66.8125 C 85.632812 -70.96875 89.832031 -74.203125 94.96875 -76.515625 C 100.101562 -78.835938 105.78125 -80 112 -80 Z M 112 -80 "/></g></g></g><g fill="#0f172a" fill-opacity="1"><g transform="translate(280.28205, 143.925547)"><g><path d="M 86.234375 -79.109375 L 52.296875 0 L 33.1875 0 L -0.734375 -79.109375 L 18.515625 -79.109375 L 43.109375 -20.453125 L 68.453125 -79.109375 Z M 86.234375 -79.109375 "/></g></g></g><g fill="#0f172a" fill-opacity="1"><g transform="translate(363.84267, 143.925547)"><g><path d="M 86.515625 -39.109375 C 86.515625 -37.828125 86.421875 -36 86.234375 -33.625 L 24.15625 -33.625 C 25.238281 -27.800781 28.078125 -23.1875 32.671875 -19.78125 C 37.265625 -16.375 42.96875 -14.671875 49.78125 -14.671875 C 58.46875 -14.671875 65.628906 -17.535156 71.265625 -23.265625 L 81.1875 -11.859375 C 77.632812 -7.609375 73.140625 -4.394531 67.703125 -2.21875 C 62.273438 -0.0507812 56.15625 1.03125 49.34375 1.03125 C 40.644531 1.03125 32.988281 -0.691406 26.375 -4.140625 C 19.757812 -7.597656 14.644531 -12.414062 11.03125 -18.59375 C 7.425781 -24.769531 5.625 -31.757812 5.625 -39.5625 C 5.625 -47.257812 7.378906 -54.195312 10.890625 -60.375 C 14.398438 -66.550781 19.265625 -71.363281 25.484375 -74.8125 C 31.703125 -78.269531 38.710938 -80 46.515625 -80 C 54.222656 -80 61.113281 -78.296875 67.1875 -74.890625 C 73.257812 -71.484375 78 -66.691406 81.40625 -60.515625 C 84.8125 -54.347656 86.515625 -47.210938 86.515625 -39.109375 Z M 46.515625 -65.1875 C 40.585938 -65.1875 35.570312 -63.429688 31.46875 -59.921875 C 27.375 -56.421875 24.882812 -51.753906 24 -45.921875 L 68.890625 -45.921875 C 68.097656 -51.648438 65.675781 -56.289062 61.625 -59.84375 C 57.582031 -63.40625 52.546875 -65.1875 46.515625 -65.1875 Z M 46.515625 -65.1875 "/></g></g></g><g fill="#0f172a" fill-opacity="1"><g transform="translate(456.144589, 143.925547)"><g><path d="M 29.78125 -67.5625 C 35.113281 -75.851562 44.492188 -80 57.921875 -80 L 57.921875 -62.375 C 56.347656 -62.664062 54.914062 -62.8125 53.625 -62.8125 C 46.414062 -62.8125 40.785156 -60.710938 36.734375 -56.515625 C 32.691406 -52.316406 30.671875 -46.269531 30.671875 -38.375 L 30.671875 0 L 12.15625 0 L 12.15625 -79.109375 L 29.78125 -79.109375 Z M 29.78125 -67.5625 "/></g></g></g><g fill="#0f172a" fill-opacity="1"><g transform="translate(517.037201, 143.925547)"><g><path d="M 47.703125 1.03125 C 39.703125 1.03125 32.492188 -0.691406 26.078125 -4.140625 C 19.660156 -7.597656 14.644531 -12.414062 11.03125 -18.59375 C 7.425781 -24.769531 5.625 -31.757812 5.625 -39.5625 C 5.625 -47.363281 7.425781 -54.328125 11.03125 -60.453125 C 14.644531 -66.578125 19.660156 -71.363281 26.078125 -74.8125 C 32.492188 -78.269531 39.703125 -80 47.703125 -80 C 55.804688 -80 63.066406 -78.269531 69.484375 -74.8125 C 75.898438 -71.363281 80.910156 -66.578125 84.515625 -60.453125 C 88.128906 -54.328125 89.9375 -47.363281 89.9375 -39.5625 C 89.9375 -31.757812 88.128906 -24.769531 84.515625 -18.59375 C 80.910156 -12.414062 75.898438 -7.597656 69.484375 -4.140625 C 63.066406 -0.691406 55.804688 1.03125 47.703125 1.03125 Z M 47.703125 -14.8125 C 54.515625 -14.8125 60.144531 -17.082031 64.59375 -21.625 C 69.039062 -26.175781 71.265625 -32.15625 71.265625 -39.5625 C 71.265625 -46.96875 69.039062 -52.941406 64.59375 -57.484375 C 60.144531 -62.023438 54.515625 -64.296875 47.703125 -64.296875 C 40.890625 -64.296875 35.285156 -62.023438 30.890625 -57.484375 C 26.492188 -52.941406 24.296875 -46.96875 24.296875 -39.5625 C 24.296875 -32.15625 26.492188 -26.175781 30.890625 -21.625 C 35.285156 -17.082031 40.890625 -14.8125 47.703125 -14.8125 Z M 47.703125 -14.8125 "/></g></g></g></g></g><g><g clip-path="url(#a919b2cfe1)"><g fill="#2563eb" fill-opacity="1"><g transform="translate(0.147231, 253.175033)"><g><path d="M 123.953125 2.359375 C 103.148438 2.359375 84.40625 -2.203125 67.71875 -11.328125 C 51.03125 -20.460938 37.925781 -33.078125 28.40625 -49.171875 C 18.882812 -65.265625 14.125 -83.222656 14.125 -103.046875 C 14.125 -122.867188 18.882812 -140.828125 28.40625 -156.921875 C 37.925781 -173.015625 51.03125 -185.625 67.71875 -194.75 C 84.40625 -203.882812 103.148438 -208.453125 123.953125 -208.453125 C 144.554688 -208.453125 163.203125 -203.882812 179.890625 -194.75 C 196.578125 -185.625 209.628906 -173.0625 219.046875 -157.0625 C 228.472656 -141.070312 233.1875 -123.066406 233.1875 -103.046875 C 233.1875 -83.023438 228.472656 -65.015625 219.046875 -49.015625 C 209.628906 -33.023438 196.578125 -20.460938 179.890625 -11.328125 C 163.203125 -2.203125 144.554688 2.359375 123.953125 2.359375 Z M 123.953125 -23.84375 C 139.066406 -23.84375 152.660156 -27.273438 164.734375 -34.140625 C 176.804688 -41.015625 186.320312 -50.488281 193.28125 -62.5625 C 200.25 -74.632812 203.734375 -88.128906 203.734375 -103.046875 C 203.734375 -117.960938 200.25 -131.457031 193.28125 -143.53125 C 186.320312 -155.601562 176.804688 -165.070312 164.734375 -171.9375 C 152.660156 -178.8125 139.066406 -182.25 123.953125 -182.25 C 108.835938 -182.25 95.144531 -178.8125 82.875 -171.9375 C 70.613281 -165.070312 61 -155.601562 54.03125 -143.53125 C 47.0625 -131.457031 43.578125 -117.960938 43.578125 -103.046875 C 43.578125 -88.128906 47.0625 -74.632812 54.03125 -62.5625 C 61 -50.488281 70.613281 -41.015625 82.875 -34.140625 C 95.144531 -27.273438 108.835938 -23.84375 123.953125 -23.84375 Z M 123.953125 -23.84375 "/></g></g></g></g></g></svg>